<svg id="Layer_1" data-name="Layer 1" xmlns="http://www.w3.org/2000/svg" viewBox="0 0 348.89 342.58"><path d="M91.93,190.19V-14.65a24.68,24.68,0,0,1,24.61-24.61h0a24.69,24.69,0,0,1,24.61,24.61" transform="translate(49.12 46.26)" style="fill:none;stroke:#16304f;stroke-linecap:round;stroke-linejoin:round;stroke-width:14.000029563903809px"/><path d="M238,190.19V-14.65a24.68,24.68,0,0,1,24.61-24.61h0a24.68,24.68,0,0,1,24.61,24.61" transform="translate(49.12 46.26)" style="fill:none;stroke:#16304f;stroke-linecap:round;stroke-linejoin:round;stroke-width:14.000029563903809px"/><line x1="281.27" y1="123.54" x2="141.05" y2="123.54" style="fill:none;stroke:#16304f;stroke-linecap:round;stroke-linejoin:round;stroke-width:14.000029563903809px"/><line x1="281.27" y1="194.38" x2="141.05" y2="194.38" style="fill:none;stroke:#16304f;stroke-linecap:round;stroke-linejoin:round;stroke-width:14.000029563903809px"/><path d="M292.77,200.2A46.33,46.33,0,0,1,208.41,203a46.33,46.33,0,0,1-83.08,0,46.34,46.34,0,0,1-83.09,0A46.3,46.3,0,0,1,.7,228.85a46.33,46.33,0,0,1-42.82-28.64" transform="translate(49.12 46.26)" style="fill:none;stroke:#16304f;stroke-linecap:round;stroke-linejoin:round;stroke-width:14.000029563903809px"/><path d="M292.77,260.69a46.33,46.33,0,0,1-84.36,2.82,46.33,46.33,0,0,1-83.08,0,46.33,46.33,0,0,1-83.09,0A46.29,46.29,0,0,1,.7,289.33a46.35,46.35,0,0,1-42.82-28.64" transform="translate(49.12 46.26)" style="fill:none;stroke:#16304f;stroke-linecap:round;stroke-linejoin:round;stroke-width:14.000029563903809px"/></svg>