<svg id="Layer_1" data-name="Layer 1" xmlns="http://www.w3.org/2000/svg" viewBox="0 0 392.75 382.09"><path d="M70.31,126.61c-40,5.69-100.85-49.46-107.42-98.28L44.46,3.5l61.79-56.08L149.73-4.51,96,47,70.31,126.61Z" transform="translate(71.05 66.01)" style="fill:none;stroke:#16304f;stroke-linecap:round;stroke-linejoin:round;stroke-width:14.000029563903809px"/><path d="M137.51,7.19c14.67,10.8,27.27,23,42.18,34.88,30.3,24.06,13.7,9.77,28.79,39.4,19.07,37.45,70.1,60.08,106.22,125.16-15.63,10.18-37.63,23.54-53.26,33.71-11.88-20.17-14.13-48.77-29.61-64.25C188,121.34,144.11,91.86,104.61,43.21" transform="translate(71.05 66.01)" style="fill:none;stroke:#16304f;stroke-linecap:round;stroke-linejoin:round;stroke-width:14.000029563903809px"/><line x1="152.72" y1="7" x2="115.59" y2="40.65" style="fill:none;stroke:#16304f;stroke-linecap:round;stroke-linejoin:round;stroke-width:14.000029563903809px"/><path d="M74.65,100.31C42.83,104.83-5.51,61-10.72,22.2" transform="translate(71.05 66.01)" style="fill:none;stroke:#16304f;stroke-linecap:round;stroke-linejoin:round;stroke-width:14.000029563903809px"/><path d="M79.57,223.53,188.93,186.3c6.15-2.1,13.21.46,15.68,5.66l9,18.94c2.47,5.21-.54,11.19-6.69,13.28l-32,10.9-30.7,10.45" transform="translate(71.05 66.01)" style="fill:none;stroke:#16304f;stroke-linecap:round;stroke-linejoin:round;stroke-width:14.000029563903809px"/><path d="M76.76,268.49-32.59,305.72c-6.15,2.09-13.21-.46-15.68-5.67l-9-18.94c-2.48-5.21.53-11.18,6.68-13.28L10.67,247" transform="translate(71.05 66.01)" style="fill:none;stroke:#16304f;stroke-linecap:round;stroke-linejoin:round;stroke-width:14.000029563903809px"/><path d="M212.51,268.79-37.4,183.7c-6.42-2.18-13.78.48-16.37,5.91l-9.37,19.77c-2.58,5.43.56,11.67,7,13.86l249.91,85.08c6.41,2.18,13.78-.48,16.36-5.92l9.38-19.76c2.58-5.44-.56-11.67-7-13.85Z" transform="translate(71.05 66.01)" style="fill:none;stroke:#16304f;stroke-linecap:round;stroke-linejoin:round;stroke-width:14.000029563903809px"/></svg>