<svg id="Layer_1" data-name="Layer 1" xmlns="http://www.w3.org/2000/svg" viewBox="0 0 75.91 49.07"><path d="M159.57,127a1.51,1.51,0,0,0,0-3H91.08a1.51,1.51,0,0,0,0,3ZM156,147.36V129.23h-4.84v18.13Zm-7,0V129.23h-4.84v18.13Zm-7.05,0V129.23H137v18.13Zm-7,0V129.23H130v18.13Zm-7.05,0V129.23h-4.84v18.13Zm-7,0V129.23h-4.84v18.13Zm-7,0V129.23h-4.84v18.13Zm-7.05,0V129.23h-4.84v18.13Zm-7,0V129.23H94.71v18.13Zm4.58-31.84v6.28h13.31v-6.28L114,114.39l-2.27,4.2a1.12,1.12,0,0,1-1,.58,1.1,1.1,0,0,1-1-.58l-2.27-4.2-3.41,1.13Zm55.43,6.28a3.72,3.72,0,0,1,0,7.43h-1.41v19.23a1.11,1.11,0,0,1-1.11,1.11H93.6a1.11,1.11,0,0,1-1.1-1.11V129.23H91.09a3.72,3.72,0,1,1,0-7.43h10.84v-7.08a1.1,1.1,0,0,1,.76-1l5-1.68a1.12,1.12,0,0,1,1.32.53l1.74,3.22,1.75-3.22a1.12,1.12,0,0,1,1.32-.53l5,1.68a1.11,1.11,0,0,1,.76,1v7.08Zm-48.78-10.37a5.47,5.47,0,1,1,5.47-5.46,5.47,5.47,0,0,1-5.47,5.46Zm0-8.72A3.26,3.26,0,1,0,114,106a3.26,3.26,0,0,0-3.26-3.26Zm21.11,15a11.41,11.41,0,0,1,1-4.66,9.12,9.12,0,0,0,0-7.73,1.11,1.11,0,0,1,2-.93,11.35,11.35,0,0,1,0,9.58,9.1,9.1,0,0,0-.8,3.74,1.11,1.11,0,0,1-2.21,0Zm6.43,0a11.41,11.41,0,0,1,1-4.66,9.16,9.16,0,0,0,0-7.73,1.1,1.1,0,1,1,2-.93,11.35,11.35,0,0,1,0,9.58,9.09,9.09,0,0,0-.79,3.74,1.11,1.11,0,0,1-2.22,0Zm6.44,0a11.41,11.41,0,0,1,1-4.66,9.12,9.12,0,0,0,0-7.73,1.11,1.11,0,0,1,2-.93,11.35,11.35,0,0,1,0,9.58,9.1,9.1,0,0,0-.8,3.74,1.11,1.11,0,0,1-2.21,0Z" transform="translate(-87.37 -100.5)" style="fill:#16304f"/></svg>