<svg id="Layer_1" data-name="Layer 1" xmlns="http://www.w3.org/2000/svg" viewBox="0 0 352.83 350.72"><path d="M96.06,40.79c-13.32-1-27.13,6.5-32.1,27.89L47,141.94c-4.35,26.75,11.12,37.78,33.23,38.71L151,181.89l18.08,70.81c15.58,33.36,55.89,7.85,42.59-20.61l-14-73c-6.22-17.23-16.82-23.68-32.13-25.32l-63.9-2.33L118.38,78c5.85-18.72,3.13-35.24-22.32-37.16Z" transform="translate(51.09 50.32)" style="fill:none;stroke:#16304f;stroke-linecap:round;stroke-linejoin:round;stroke-width:14.000029563903809px"/><path d="M128.29-34.85c16,13,19.13,36.16,6.93,51.79s-35.07,17.81-51.09,4.84S65-14.38,77.2-30s35.07-17.8,51.09-4.83Z" transform="translate(51.09 50.32)" style="fill:none;stroke:#16304f;stroke-linecap:round;stroke-linejoin:round;stroke-width:14.000029563903809px"/><path d="M199.77,293.4h-91l-.24,0h0l-.22,0h0l-.22,0h0l-.22,0h0l-.22-.05h0l-.22,0h0l-.22-.06h0l-1.07-.34h0a9.32,9.32,0,0,1-5-4.78h0l-.17-.41h0l-.07-.21h0l-.08-.21-.07-.22h0l-.07-.21h0l-.06-.22-.05-.23,0-.21h0l0-.23,0-.22h0l0-.23,0-.23,0-.23h0v-.23h0V220.58c0-5.14-5.06-11.58-10.21-11.58H23.92l-.22,0h0l-.23,0h0l-.22,0h0l-.22,0h0l-.22,0h0l-.22-.05h0l-.22-.06h0l-1.07-.34h0a9.27,9.27,0,0,1-5-4.77h0l-.17-.41L16,203l-.08-.22h0l-.07-.21h0l-.07-.22h0l0-.21-.06-.23h0l-.05-.22h0l0-.22h0l0-.22h0l0-.23,0-.23h0l0-.23h0l0-.23h0V200h0v-.23h0V134.48c0-5-5.88-10.3-10.85-10.3H-44.09" transform="translate(51.09 50.32)" style="fill:none;stroke:#16304f;stroke-linecap:round;stroke-linejoin:round;stroke-width:14.000029563903809px"/><path d="M207.55,75.14C192.92,62,194.69,41,203.44,29.08s11.17-30.27-3-44.84" transform="translate(51.09 50.32)" style="fill:none;stroke:#16304f;stroke-linecap:round;stroke-linejoin:round;stroke-width:14.000029563903809px"/><path d="M253.8,68.57c-20.12-15.34-17.69-39.9-5.65-53.83s15.36-35.38-4.08-52.41" transform="translate(51.09 50.32)" style="fill:none;stroke:#16304f;stroke-linecap:round;stroke-linejoin:round;stroke-width:14.000029563903809px"/><path d="M291.72,14.63c-14.63,13.13-12.86,34.14-4.11,46.06s11.17,30.27-3,44.84" transform="translate(51.09 50.32)" style="fill:none;stroke:#16304f;stroke-linecap:round;stroke-linejoin:round;stroke-width:14.000029563903809px"/></svg>