<?xml version="1.0" standalone="no"?>
<!DOCTYPE svg PUBLIC "-//W3C//DTD SVG 20010904//EN"
 "http://www.w3.org/TR/2001/REC-SVG-20010904/DTD/svg10.dtd">
<svg version="1.0" xmlns="http://www.w3.org/2000/svg"
 width="910.000000pt" height="910.000000pt" viewBox="0 0 910.000000 910.000000"
 preserveAspectRatio="xMidYMid meet">
<metadata>
Created by potrace 1.14, written by Peter Selinger 2001-2017
</metadata>
<g transform="translate(0.000000,910.000000) scale(0.100000,-0.100000)"
fill="#000000" stroke="none">
<path d="M6067 7304 c-1 -1 -54 -5 -117 -9 -169 -10 -255 -18 -324 -31 -11 -2
-37 -6 -56 -8 -30 -4 -103 -16 -204 -33 -65 -11 -378 -95 -481 -128 -325 -107
-705 -285 -985 -460 -299 -187 -560 -384 -778 -590 -105 -99 -90 -101 39 -4
448 336 932 594 1449 774 58 20 112 38 120 40 8 2 54 15 101 29 92 27 312 81
369 90 19 3 58 10 85 15 176 33 357 46 665 46 302 0 392 -7 675 -51 17 -3 64
-12 105 -20 41 -9 83 -18 94 -20 58 -11 226 -58 321 -90 500 -165 931 -425
1280 -770 133 -131 220 -237 238 -290 46 -130 -55 -276 -325 -472 -422 -306
-834 -518 -1303 -671 -122 -40 -393 -113 -460 -124 -16 -3 -50 -10 -75 -15
-25 -6 -63 -13 -85 -16 -22 -4 -65 -11 -95 -16 -52 -8 -182 -25 -280 -35 -215
-23 -720 -23 -905 0 -16 2 -60 6 -97 10 -37 3 -77 8 -90 10 -13 2 -43 6 -68 9
-25 3 -54 8 -65 10 -11 2 -42 7 -70 10 -27 4 -68 11 -90 16 -22 5 -57 11 -78
14 -59 9 -167 33 -322 72 -509 127 -982 312 -1487 582 -124 67 -598 346 -798
470 -174 108 -559 359 -570 371 -3 4 -34 26 -70 51 -189 130 -533 404 -690
550 -30 28 -89 82 -130 119 -41 38 -91 84 -111 102 -20 19 -56 51 -80 73 -24
21 -73 66 -109 100 -85 80 -168 146 -185 146 -37 0 -19 -91 66 -340 98 -286
125 -377 154 -520 29 -148 31 -160 40 -236 4 -33 9 -70 11 -84 22 -140 22
-675 -1 -825 -2 -16 -9 -68 -15 -115 -5 -47 -12 -96 -15 -110 -43 -214 -48
-265 -28 -282 36 -29 411 135 605 265 132 88 250 182 325 257 70 71 76 91 11
38 -121 -99 -407 -262 -583 -332 -38 -15 -79 -32 -90 -37 -30 -14 -168 -59
-171 -56 -1 1 7 47 17 102 53 274 72 477 72 750 1 153 -8 328 -18 395 -2 14
-7 45 -10 70 -13 91 -17 117 -35 210 -35 177 -95 375 -150 497 l-29 63 122
-123 c165 -165 365 -347 541 -492 50 -41 72 -60 116 -98 128 -112 558 -440
775 -593 11 -7 38 -27 60 -42 469 -332 1151 -730 1566 -912 52 -23 114 -51
139 -62 108 -48 279 -118 290 -118 4 0 25 -8 46 -17 22 -9 41 -17 44 -18 3 -1
82 -26 175 -57 143 -48 425 -125 523 -143 335 -63 529 -78 977 -79 278 -1 474
5 580 18 17 3 62 7 100 11 39 3 117 13 175 21 57 9 118 17 135 20 16 2 41 6
55 9 14 3 39 8 55 10 95 16 208 41 345 76 85 22 162 42 171 44 8 2 98 31 200
65 565 189 1095 487 1466 826 285 261 332 525 147 821 -71 112 -120 170 -269
318 -266 264 -512 431 -906 613 -185 86 -515 196 -709 237 -108 23 -228 45
-267 51 -26 3 -50 8 -53 9 -3 2 -41 6 -85 10 -44 4 -87 9 -96 10 -55 11 -522
27 -532 19z"/>
<path d="M5857 6494 c-1 -1 -56 -4 -122 -8 -307 -15 -620 -73 -960 -178 -92
-28 -261 -87 -310 -108 -339 -145 -509 -228 -725 -357 -72 -43 -139 -82 -148
-88 -40 -23 -232 -158 -237 -165 -9 -14 215 -152 375 -231 85 -42 220 -102
300 -132 136 -52 410 -137 510 -158 25 -5 56 -12 70 -15 14 -2 33 -7 42 -10
23 -7 57 -13 96 -19 18 -2 36 -6 40 -8 4 -3 31 -8 61 -11 29 -4 56 -8 60 -10
3 -2 33 -6 66 -10 33 -3 71 -8 85 -10 78 -13 156 -20 360 -31 205 -11 625 -5
649 10 3 2 38 6 76 9 39 3 81 8 95 11 14 3 43 8 65 11 196 25 535 118 770 211
169 67 396 184 469 243 201 161 263 251 237 347 -59 219 -594 505 -1191 636
-63 14 -135 28 -160 32 -125 17 -285 32 -365 34 -49 2 -116 3 -148 4 -32 1
-59 1 -60 1z"/>
<path d="M1655 3846 c-56 -25 -88 -70 -93 -130 -4 -45 0 -60 18 -85 41 -58
122 -78 203 -52 44 15 96 72 99 109 0 15 2 34 3 42 3 31 -18 72 -52 97 -40 31
-129 40 -178 19z"/>
<path d="M7722 3851 c-119 -31 -151 -197 -49 -259 48 -30 135 -30 188 0 67 38
95 130 60 197 -28 52 -122 81 -199 62z"/>
<path d="M2105 3780 c-3 -5 -21 -92 -31 -146 -3 -16 -12 -63 -21 -104 -8 -41
-17 -84 -19 -95 -2 -11 -24 -121 -48 -245 -25 -124 -48 -240 -51 -259 -3 -19
-8 -37 -10 -40 -2 -4 -6 -27 -10 -51 -3 -25 -11 -65 -17 -90 -5 -25 -12 -58
-15 -75 -2 -16 -8 -46 -14 -65 -18 -67 -22 -65 121 -65 l129 0 6 25 c4 14 9
36 11 50 3 14 7 36 9 50 3 14 8 39 11 55 3 17 14 71 24 120 11 50 21 101 24
115 2 14 19 97 36 185 36 180 33 164 53 265 9 41 18 87 20 101 3 14 15 75 27
135 12 60 22 116 23 124 2 13 -18 15 -126 15 -71 0 -130 -2 -132 -5z"/>
<path d="M2604 3775 c-3 -10 -20 -97 -30 -151 -3 -16 -26 -130 -51 -254 -25
-124 -47 -236 -49 -250 -3 -14 -18 -90 -34 -170 -16 -80 -32 -161 -35 -180 -3
-19 -8 -42 -10 -50 -2 -8 -6 -27 -9 -43 -3 -15 -7 -35 -10 -45 -3 -9 -7 -33
-10 -52 l-5 -35 129 0 c71 0 131 2 133 5 3 3 7 21 10 40 3 19 24 130 47 245
23 116 43 217 45 225 2 8 33 166 70 350 37 184 68 344 69 355 1 19 -5 20 -128
20 -77 0 -130 -4 -132 -10z"/>
<path d="M7155 3780 c-3 -5 -30 -135 -41 -198 -3 -15 -45 -227 -94 -472 -99
-496 -99 -493 -106 -535 l-6 -30 131 0 130 0 6 25 c4 14 9 36 12 50 2 14 22
113 43 220 21 107 41 206 44 220 2 14 9 45 15 70 5 25 12 61 16 80 5 34 20
110 31 160 3 14 7 36 9 50 2 14 7 36 10 50 16 80 55 277 57 289 3 24 -11 27
-128 26 -69 0 -127 -2 -129 -5z"/>
<path d="M225 3710 c-2 -3 0 -24 6 -46 5 -21 18 -77 28 -124 37 -159 122 -525
147 -630 14 -58 27 -112 29 -120 2 -8 15 -66 29 -129 14 -62 26 -114 26 -115
0 -4 269 0 273 4 2 3 50 79 108 170 107 171 144 230 442 700 97 154 177 284
177 288 0 4 -62 7 -137 7 l-138 0 -66 -105 c-37 -58 -155 -244 -263 -414 -108
-171 -198 -303 -201 -295 -2 8 -6 25 -9 39 -4 21 -64 288 -96 425 -28 120 -50
217 -61 270 -7 33 -16 64 -21 70 -9 10 -267 15 -273 5z"/>
<path d="M4741 3711 c-7 -5 -23 -64 -35 -131 -3 -14 -28 -140 -56 -280 -28
-140 -54 -266 -56 -280 -3 -14 -14 -68 -24 -120 -11 -52 -22 -106 -24 -120 -3
-14 -14 -70 -25 -125 -11 -54 -18 -102 -16 -105 5 -8 701 -4 755 4 175 28 295
102 349 216 22 46 26 69 26 140 0 75 -4 91 -29 133 -16 29 -46 60 -72 77 l-44
28 43 25 c53 31 114 97 134 144 8 20 17 66 20 104 13 153 -84 255 -267 284
-54 9 -667 13 -679 6z m607 -225 c37 -19 62 -67 55 -105 -11 -61 -36 -93 -92
-119 -51 -24 -66 -25 -228 -27 -95 -1 -173 1 -173 4 0 3 11 64 25 136 14 71
25 130 25 132 0 1 80 1 178 0 146 -2 183 -6 210 -21z m-46 -468 c47 -21 70
-63 63 -119 -6 -44 -34 -93 -64 -109 -61 -32 -108 -38 -296 -40 l-192 -1 13
73 c8 40 21 105 29 145 l16 72 197 -3 c155 -2 205 -6 234 -18z"/>
<path d="M3300 3450 c-119 -18 -213 -70 -293 -161 -89 -102 -129 -220 -123
-370 4 -114 28 -183 88 -256 114 -135 325 -171 495 -85 23 12 44 26 48 32 14
22 23 8 18 -28 l-5 -38 121 1 c66 1 122 3 124 5 3 4 54 254 73 360 3 14 7 32
9 40 2 8 7 29 9 45 3 17 21 109 41 206 19 98 37 192 40 211 l6 34 -131 0 -130
0 -7 -36 c-4 -19 -8 -38 -9 -42 -1 -5 -2 -15 -3 -23 -1 -11 -14 -3 -43 25 -71
68 -201 100 -328 80z m174 -221 c94 -26 138 -95 132 -206 -8 -153 -96 -256
-232 -270 -138 -14 -227 61 -227 192 0 75 6 102 31 151 29 57 65 92 124 119
57 27 111 31 172 14z"/>
<path d="M6156 3444 c-189 -45 -333 -204 -373 -414 -6 -35 -6 -147 1 -192 22
-139 143 -262 292 -297 92 -22 235 0 302 47 53 36 53 36 50 -4 l-3 -39 123 0
c67 0 122 2 123 5 0 3 2 12 4 20 3 18 94 466 99 495 2 11 18 92 35 180 18 88
34 169 36 180 4 20 0 21 -125 21 l-130 0 -10 -35 c-5 -20 -10 -44 -10 -53 0
-25 -6 -23 -57 21 -24 22 -67 47 -95 57 -65 21 -187 25 -262 8z m217 -215 c86
-24 138 -108 131 -213 -12 -167 -127 -276 -280 -263 -118 9 -176 70 -180 191
-7 198 151 335 329 285z"/>
<path d="M8505 3445 c-58 -14 -139 -51 -156 -71 -25 -31 -29 -18 -16 61 1 5
-48 10 -121 10 -102 1 -123 -2 -126 -15 -3 -8 -37 -177 -76 -375 -72 -359 -75
-378 -85 -425 -2 -14 -7 -39 -10 -55 l-4 -30 129 0 c108 0 131 2 134 15 3 8 9
40 15 70 6 30 14 66 16 80 3 14 7 36 10 50 2 14 9 50 15 80 6 30 14 66 16 80
37 188 81 260 183 295 85 29 163 16 208 -34 21 -24 38 -95 29 -122 -3 -8 -7
-30 -10 -49 -7 -48 -85 -432 -91 -447 -2 -7 1 -14 8 -14 46 -4 239 -4 246 1 8
5 35 111 47 187 3 21 7 40 9 43 2 3 6 26 10 50 3 25 10 61 15 80 5 19 12 53
16 75 3 22 8 43 11 48 2 4 6 43 8 87 11 208 -96 325 -304 334 -42 2 -98 -2
-126 -9z"/>
<path d="M1536 3431 c-5 -15 -53 -247 -62 -301 -3 -14 -7 -32 -9 -40 -2 -8 -7
-31 -10 -50 -3 -19 -26 -136 -51 -259 -25 -123 -42 -226 -39 -229 3 -4 62 -6
130 -7 l124 -1 10 51 c6 27 14 68 18 90 4 22 8 42 8 45 2 7 17 82 20 100 2 8
17 85 35 170 17 85 34 166 36 180 2 14 7 36 9 50 3 14 8 38 11 54 3 16 11 58
18 92 8 35 13 65 12 65 0 1 -58 3 -128 4 -110 2 -128 0 -132 -14z"/>
<path d="M7586 3431 c-3 -9 -7 -29 -10 -46 -4 -16 -9 -41 -11 -55 -3 -14 -7
-37 -10 -53 -3 -15 -12 -59 -20 -97 -8 -38 -17 -84 -20 -102 -3 -18 -26 -132
-50 -253 -24 -121 -46 -234 -49 -250 l-5 -30 129 0 129 0 10 45 c6 25 13 56
15 70 3 14 10 50 16 80 6 30 13 66 16 80 3 14 29 149 59 300 30 151 56 286 57
299 l3 25 -127 1 c-109 2 -128 -1 -132 -14z"/>
</g>
</svg>
