<?xml version="1.0" encoding="UTF-8"?> <!-- Generator: Adobe Illustrator 16.0.0, SVG Export Plug-In . SVG Version: 6.00 Build 0) --> <svg xmlns="http://www.w3.org/2000/svg" xmlns:xlink="http://www.w3.org/1999/xlink" id="Layer_1" x="0px" y="0px" width="24px" height="24px" viewBox="0 0 24 24" xml:space="preserve"> <g> <path d="M2,23h20v-9H2V23z M4,16h16v1h-7v2h7v2H4V16z"></path> <polygon points="17.83,10 21.07,6.76 19.66,5.34 15,10 13,10 13,8 17.66,3.34 16.24,1.93 13,5.17 13,1 11,1 11,5.17 7.76,1.93 6.34,3.34 11,8 11,10 9,10 4.34,5.34 2.93,6.76 6.17,10 2,10 2,12 6.17,12 9,12 11,12 13,12 15,12 17.83,12 22,12 22,10 "></polygon> </g> </svg> 