<?xml version="1.0" encoding="UTF-8"?> <!-- Generator: Adobe Illustrator 16.0.0, SVG Export Plug-In . SVG Version: 6.00 Build 0) --> <svg xmlns="http://www.w3.org/2000/svg" xmlns:xlink="http://www.w3.org/1999/xlink" id="Layer_1" x="0px" y="0px" width="24px" height="24px" viewBox="0 0 24 24" xml:space="preserve"> <g> <path d="M2,14v9h20v-9H2z M20,17h-7v2h7v2H4v-5h16V17z"></path> <path d="M17.4,10.99c0,0.4,0.06,0.72,0.13,1.01h2.14c-0.17-0.29-0.28-0.53-0.28-1.01c0-0.55,0.14-0.78,0.36-1.15 c0.27-0.45,0.64-1.07,0.64-2.18c0-1.11-0.37-1.72-0.64-2.18c-0.23-0.37-0.36-0.59-0.36-1.15c0-0.55,0.14-0.78,0.36-1.15 C20.03,2.73,20.4,2.11,20.4,1h-2c0,0.56-0.13,0.78-0.36,1.15C17.77,2.6,17.4,3.22,17.4,4.33s0.37,1.73,0.64,2.18 c0.23,0.37,0.36,0.6,0.36,1.15c0,0.55-0.14,0.78-0.36,1.15C17.77,9.26,17.4,9.88,17.4,10.99z"></path> <path d="M12.9,11.01c0,0.39,0.06,0.71,0.13,0.99h2.15c-0.17-0.29-0.28-0.53-0.28-1.01c0-0.55,0.14-0.78,0.36-1.15 c0.27-0.45,0.64-1.07,0.64-2.18c0-1.11-0.37-1.73-0.64-2.18c-0.23-0.37-0.36-0.59-0.36-1.15c0-0.55,0.14-0.78,0.36-1.15 c0.27-0.45,0.63-1.06,0.64-2.16h-2c0,0.55-0.14,0.78-0.36,1.15c-0.27,0.45-0.64,1.07-0.64,2.18s0.37,1.73,0.64,2.18 c0.23,0.37,0.36,0.6,0.36,1.15s-0.14,0.78-0.36,1.15C13.27,9.28,12.9,9.9,12.9,11.01z"></path> <path d="M3.6,11.01c0,0.39,0.05,0.71,0.13,0.99h2.15C5.7,11.71,5.6,11.47,5.6,10.99c0-0.55,0.14-0.78,0.36-1.15 C6.23,9.39,6.6,8.77,6.6,7.66c0-1.11-0.37-1.73-0.64-2.18C5.73,5.11,5.6,4.89,5.6,4.33c0-0.55,0.14-0.78,0.36-1.15 C6.23,2.73,6.59,2.12,6.6,1.02h-2c0,0.55-0.14,0.78-0.36,1.15C3.97,2.62,3.6,3.24,3.6,4.35s0.37,1.73,0.64,2.18 C4.47,6.9,4.6,7.13,4.6,7.68S4.46,8.46,4.24,8.83C3.97,9.28,3.6,9.9,3.6,11.01z"></path> <path d="M8.1,10.99c0,0.4,0.06,0.72,0.13,1.01h2.14c-0.17-0.29-0.28-0.53-0.28-1.01c0-0.55,0.14-0.78,0.36-1.15 c0.27-0.45,0.64-1.07,0.64-2.18c0-1.11-0.37-1.72-0.64-2.18c-0.23-0.37-0.36-0.59-0.36-1.15c0-0.55,0.14-0.78,0.36-1.15 C10.73,2.73,11.1,2.11,11.1,1h-2c0,0.56-0.13,0.78-0.36,1.15C8.47,2.6,8.1,3.22,8.1,4.33s0.37,1.73,0.64,2.18 C8.97,6.88,9.1,7.11,9.1,7.66c0,0.55-0.14,0.78-0.36,1.15C8.47,9.26,8.1,9.88,8.1,10.99z"></path> </g> </svg> 