<?xml version="1.0" encoding="UTF-8"?> <!-- Generator: Adobe Illustrator 16.0.0, SVG Export Plug-In . SVG Version: 6.00 Build 0) --> <svg xmlns="http://www.w3.org/2000/svg" xmlns:xlink="http://www.w3.org/1999/xlink" id="Layer_1" x="0px" y="0px" width="24px" height="24px" viewBox="0 0 24 24" xml:space="preserve"> <g id="Master"> <g> <path d="M17.16,23.47c1.9,0,3.44-1.54,3.44-3.44c0-1.9-1.54-3.44-3.44-3.44c-1.49,0-2.75,0.96-3.23,2.29H8.15l2.28-3.51 c0.33,0.05,0.67,0.07,1,0.07c0.33,0,0.67-0.02,1-0.07l1.17,1.8c0.48-0.61,1.1-1.09,1.83-1.39l-0.69-1.07 c2.78-1.26,4.71-4.05,4.71-7.31H3.4c0,3.26,1.94,6.04,4.73,7.31l-4.53,6.97c-0.34,0.53-0.19,1.24,0.33,1.58l0,0 c0.53,0.34,1.24,0.2,1.58-0.33l1.15-1.78h7.27C14.41,22.51,15.67,23.47,17.16,23.47z M17.16,18.88c0.63,0,1.15,0.52,1.15,1.15 c0,0.63-0.52,1.15-1.15,1.15s-1.15-0.52-1.15-1.15C16.01,19.4,16.53,18.88,17.16,18.88z M6.17,9.71h10.51 c-0.88,2.02-2.91,3.44-5.25,3.44C9.09,13.15,7.06,11.72,6.17,9.71z"></path> <path d="M8.46,6.26H9.6c0.17-1.32,0.26-1.88-1.02-3.39C8.1,2.3,7.8,1.99,8.05,0.53H6.92C6.68,1.8,6.95,2.88,7.94,3.92 C8.19,4.2,8.85,4.69,8.46,6.26z"></path> <path d="M11.3,6.26h1.15c0.17-1.32,0.26-1.88-1.02-3.39c-0.48-0.57-0.78-0.9-0.53-2.34H9.76C9.52,1.8,9.8,2.88,10.78,3.92 C11.05,4.2,11.7,4.69,11.3,6.26z"></path> <path d="M14.19,6.26h1.15c0.17-1.32,0.27-1.88-1.02-3.39c-0.48-0.57-0.78-0.88-0.53-2.34h-1.13c-0.24,1.27,0.03,2.35,1.02,3.39 C13.93,4.2,14.58,4.69,14.19,6.26z"></path> </g> </g> </svg> 