<?xml version="1.0" encoding="UTF-8"?> <!-- Generator: Adobe Illustrator 16.0.0, SVG Export Plug-In . SVG Version: 6.00 Build 0) --> <svg xmlns="http://www.w3.org/2000/svg" xmlns:xlink="http://www.w3.org/1999/xlink" id="Layer_1" x="0px" y="0px" width="24px" height="24px" viewBox="0 0 24 24" xml:space="preserve"> <g> <circle cx="7" cy="5" r="2"></circle> <circle cx="14.93" cy="8" r="1.43"></circle> <circle cx="19.66" cy="8" r="1.43"></circle> <circle cx="17.32" cy="4.43" r="1.43"></circle> <path d="M11.15,11c-0.31-0.22-0.59-0.46-0.82-0.72l-1.4-1.55C8.74,8.52,8.5,8.35,8.24,8.23C7.95,8.09,7.62,8,7.28,8H7.25 C6.01,8,5,9.01,5,10.25V11H2v8c0,1.1,0.9,2,2,2h16c1.1,0,2-0.9,2-2v-8H11.15z M7,19H5v-6h2V19z M11,19H9v-6h2V19z M15,19h-2v-6h2 V19z M19,19h-2v-6h2V19z"></path> </g> </svg> 