<?xml version="1.0" encoding="UTF-8"?> <!-- Generator: Adobe Illustrator 16.0.0, SVG Export Plug-In . SVG Version: 6.00 Build 0) --> <svg xmlns="http://www.w3.org/2000/svg" xmlns:xlink="http://www.w3.org/1999/xlink" id="Layer_1" x="0px" y="0px" width="24px" height="24px" viewBox="0 0 24 24" xml:space="preserve"> <g> <path d="M19.2,21.49l-4-11h-3.7v-3c0-0.2-0.06-0.39-0.17-0.55l-4-6c-0.37-0.56-1.29-0.56-1.66,0l-4,6C1.56,7.1,1.5,7.29,1.5,7.49 v16h2v-3h6v3h2v-11h2.3l4,11h4.7v-2H19.2z M6.5,3.29l3,4.5v2.7h-6v-2.7L6.5,3.29z M3.5,18.49v-2h6v2H3.5z M9.5,14.49h-6v-2h6V14.49 z"></path> <circle cx="6.5" cy="7.55" r="1.06"></circle> </g> </svg> 