<?xml version="1.0" encoding="UTF-8"?> <!-- Generator: Adobe Illustrator 24.2.1, SVG Export Plug-In . SVG Version: 6.00 Build 0) --> <svg xmlns="http://www.w3.org/2000/svg" xmlns:xlink="http://www.w3.org/1999/xlink" version="1.1" id="Layer_1" x="0px" y="0px" width="24px" height="24px" viewBox="0 0 24 24" style="enable-background:new 0 0 24 24;" xml:space="preserve"> <g id="ui_x5F_spec_x5F_header_copy_2"> </g> <g id="ui_x5F_spec_x5F_header_copy_2_1_"> </g> <g> <path d="M16.93,9.31H3.16L2.98,8.24L1.01,8.59l2.43,13.79l0.06-0.01H16.6l0.06,0.01l0-0.01h0v-0.02l2.43-13.76l-1.97-0.35 L16.93,9.31z M6.77,20.37H5.11L4.5,16.9h2.26V20.37z M6.77,14.9H4.15l-0.63-3.59h3.25V14.9z M11.33,20.37H8.77V16.9h2.56V20.37z M11.33,14.9H8.77v-3.59h2.56V14.9z M14.98,20.37h-1.65V16.9h2.26L14.98,20.37z M15.94,14.9h-2.62v-3.59h3.25L15.94,14.9z"></path> <path d="M6.27,7.64h1.5c-0.05-0.88-0.35-1.38-0.59-1.8c-0.25-0.4-0.4-0.68-0.4-1.29s0.15-0.89,0.4-1.28 c0.2-0.33,0.49-0.82,0.57-1.64h-1.5C6.19,1.98,6.07,2.21,5.89,2.5c-0.25,0.42-0.6,1.01-0.6,2.05c0,1.03,0.33,1.6,0.6,2.05 C6.1,6.95,6.24,7.19,6.27,7.64z"></path> <path d="M9.65,7.64h1.5c-0.05-0.88-0.35-1.38-0.59-1.8c-0.25-0.4-0.4-0.68-0.4-1.29s0.15-0.89,0.4-1.28 c0.2-0.33,0.49-0.82,0.57-1.64h-1.5C9.57,1.98,9.44,2.21,9.26,2.5C9,2.92,8.66,3.5,8.66,4.55c0,1.03,0.33,1.6,0.6,2.05 C9.47,6.95,9.61,7.19,9.65,7.64z"></path> <path d="M13.02,7.64h1.5c-0.05-0.88-0.35-1.38-0.59-1.8c-0.25-0.41-0.4-0.68-0.4-1.29c0-0.61,0.15-0.89,0.4-1.28 c0.25-0.42,0.5-0.89,0.57-1.64h-1.5c-0.06,0.36-0.18,0.59-0.36,0.88c-0.25,0.42-0.6,1-0.6,2.05c0,1.03,0.33,1.6,0.6,2.05 C12.85,6.95,12.98,7.19,13.02,7.64z"></path> <path d="M20.86,2.3c-1.18,0-2.14,0.96-2.14,2.14h1c0-0.63,0.51-1.14,1.14-1.14s1.13,0.51,1.13,1.14v9.94 c-1.61,0.51-2.79,2.11-2.79,4c0,1.89,1.18,3.48,2.79,4v0h1V4.44C22.99,3.26,22.03,2.3,20.86,2.3z"></path> </g> </svg> 