<?xml version="1.0" encoding="UTF-8"?> <!-- Generator: Adobe Illustrator 16.0.0, SVG Export Plug-In . SVG Version: 6.00 Build 0) --> <svg xmlns="http://www.w3.org/2000/svg" xmlns:xlink="http://www.w3.org/1999/xlink" id="Layer_1" x="0px" y="0px" width="24px" height="24px" viewBox="0 0 24 24" xml:space="preserve"> <g> <path d="M20,4H4C2.89,4,2,4.89,2,6v12c0,1.11,0.89,2,2,2h16c1.11,0,1.99-0.89,1.99-2L22,6C22,4.89,21.11,4,20,4z M20,18H4v-2h16V18 z M20,13.96H4V6h16V13.96z"></path> <path d="M6.13,11.69c-0.55,0-1.03-0.22-1.16-0.29l-0.11-0.06l-0.27,1.09l0.07,0.04c0.27,0.15,0.82,0.3,1.41,0.3 c1.5,0,2.04-0.86,2.04-1.59c0-0.71-0.42-1.2-1.31-1.53C6.17,9.43,5.96,9.32,5.96,9.09c0-0.22,0.24-0.36,0.6-0.36 c0.34,0,0.66,0.07,0.96,0.22l0.11,0.05l0.3-1.08L7.85,7.88c-0.37-0.17-0.8-0.25-1.27-0.25c-1.13,0-1.92,0.64-1.92,1.55 c0,0.68,0.47,1.19,1.38,1.51c0.62,0.22,0.74,0.38,0.74,0.58C6.79,11.54,6.55,11.69,6.13,11.69z"></path> <polygon points="8.1,12 8.1,12.71 12.03,12.71 12.03,11.62 9.83,11.62 12,8.47 12,7.71 8.31,7.71 8.31,8.81 10.31,8.81 8.12,11.97 "></polygon> <polygon points="15.29,6.34 13.85,6.34 13.12,7.42 14.21,7.42 "></polygon> <polygon points="15.49,11.62 13.52,11.62 13.52,10.68 15.29,10.68 15.29,9.6 13.52,9.6 13.52,8.8 15.39,8.8 15.39,7.71 12.23,7.71 12.23,12.71 15.49,12.71 "></polygon> <path d="M17,11.01c0.08,0.01,0.17,0.01,0.27,0.01c0.71,0,1.25-0.18,1.63-0.53c0.3-0.29,0.47-0.72,0.47-1.21 c0-0.48-0.2-0.91-0.55-1.19c-0.34-0.27-0.84-0.41-1.53-0.41c-0.59,0-1.09,0.03-1.48,0.1l-0.08,0.01v4.92H17V11.01z M17,8.72 c0.07-0.01,0.18-0.02,0.35-0.02c0.48,0,0.75,0.21,0.75,0.61c0,0.43-0.3,0.68-0.83,0.68c-0.11,0-0.2,0-0.26-0.01V8.72z"></path> </g> </svg> 