<?xml version="1.0" encoding="UTF-8"?> <!-- Generator: Adobe Illustrator 16.0.0, SVG Export Plug-In . SVG Version: 6.00 Build 0) --> <svg xmlns="http://www.w3.org/2000/svg" xmlns:xlink="http://www.w3.org/1999/xlink" id="Layer_1" x="0px" y="0px" width="24px" height="24px" viewBox="0 0 24 24" xml:space="preserve"> <g> <path fill="none" d="M19.37,12.32H4.63c-0.7,0-1.29,0.52-1.43,1.2c0.2-0.02,0.39-0.05,0.62-0.05c1.36,0,2.13,0.45,2.68,0.79 c0.46,0.28,0.72,0.44,1.41,0.44s0.96-0.16,1.41-0.44c0.56-0.33,1.33-0.79,2.69-0.79c1.36,0,2.13,0.45,2.68,0.79 c0.46,0.27,0.74,0.44,1.41,0.44s0.96-0.16,1.41-0.44c0.55-0.33,1.31-0.79,2.68-0.79c0.22,0,0.41,0.03,0.6,0.05 C20.66,12.84,20.07,12.32,19.37,12.32z"></path> <path fill="none" d="M4.4,10.35c0.08,0,0.15-0.02,0.23-0.02h14.74c0.07,0,0.13,0.02,0.2,0.02V8.36l-2.58-1.99l-1.7,1.55 c-0.19,0.17-0.43,0.26-0.67,0.26h-4.23c-0.23,0-0.45-0.08-0.63-0.22C9.22,7.52,7.52,6.38,6.25,6.38c-0.53,0-0.91,0.14-1.2,0.45 C4.44,7.49,4.37,8.78,4.4,9.22L4.4,10.35z"></path> <path d="M22.88,14.26c-0.01-0.01-0.03-0.02-0.05-0.03v-0.41c0-1.08-0.5-2.04-1.26-2.68V7.87c0-0.31-0.14-0.6-0.39-0.79l-3.63-2.81 c-0.38-0.3-0.93-0.27-1.29,0.05L15.7,4.84l-1.51-1.51l0.75-0.75c0.2-0.2,0.2-0.51,0-0.71s-0.51-0.2-0.71,0L12.01,4.1 c-0.2,0.2-0.2,0.51,0,0.71c0.1,0.1,0.22,0.15,0.35,0.15c0.13,0,0.26-0.05,0.35-0.15l0.77-0.77l1.48,1.48l-0.72,0.66h-3.5 c-0.73-0.54-2.64-1.8-4.47-1.8c-1.08,0-2,0.38-2.66,1.09C2.27,6.89,2.39,9.11,2.4,9.29v1.88c-0.75,0.64-1.24,1.59-1.24,2.66v0.41 c-0.01,0.01-0.03,0.02-0.04,0.03C0.74,14.5,0.48,14.64,0,14.68v2.45c1.17-0.06,1.88-0.46,2.4-0.76c0.46-0.28,0.74-0.44,1.41-0.44 c0.68,0,0.96,0.16,1.41,0.44c0.55,0.33,1.32,0.79,2.68,0.79s2.13-0.46,2.69-0.79c0.46-0.28,0.73-0.44,1.41-0.44 c0.68,0,0.96,0.17,1.41,0.44c0.55,0.33,1.32,0.79,2.68,0.79s2.11-0.46,2.68-0.79c0.46-0.28,0.72-0.44,1.41-0.44 c0.68,0,0.96,0.17,1.41,0.44c0.51,0.31,1.22,0.7,2.39,0.76v-2.45C23.52,14.64,23.26,14.5,22.88,14.26z M5.06,6.83 c0.29-0.31,0.67-0.45,1.2-0.45c1.27,0,2.96,1.14,3.51,1.58c0.18,0.14,0.4,0.22,0.63,0.22h4.23c0.25,0,0.49-0.09,0.67-0.26l1.7-1.55 l2.58,1.99v1.98c-0.07,0-0.13-0.02-0.2-0.02H4.63c-0.08,0-0.15,0.02-0.23,0.02l0-1.12C4.37,8.78,4.44,7.49,5.06,6.83z M20.2,13.47 c-1.36,0-2.13,0.45-2.68,0.79c-0.46,0.28-0.74,0.44-1.41,0.44s-0.96-0.17-1.41-0.44c-0.55-0.33-1.31-0.79-2.68-0.79 c-1.36,0-2.13,0.45-2.69,0.79C8.87,14.54,8.6,14.7,7.91,14.7s-0.96-0.16-1.41-0.44c-0.55-0.33-1.31-0.79-2.68-0.79 c-0.23,0-0.42,0.03-0.62,0.05c0.14-0.68,0.73-1.2,1.43-1.2h14.74c0.7,0,1.29,0.52,1.43,1.2C20.61,13.5,20.42,13.47,20.2,13.47z"></path> <path d="M22.88,19.37c-0.55-0.33-1.32-0.79-2.68-0.79s-2.13,0.46-2.68,0.79c-0.46,0.28-0.74,0.44-1.41,0.44s-0.96-0.17-1.41-0.44 c-0.55-0.33-1.31-0.79-2.68-0.79c-1.36,0-2.13,0.46-2.69,0.79c-0.45,0.28-0.72,0.44-1.41,0.44s-0.96-0.16-1.41-0.44 c-0.55-0.33-1.31-0.79-2.68-0.79c-1.36,0-2.13,0.46-2.69,0.79C0.74,19.6,0.48,19.75,0,19.79v2.45c1.17-0.06,1.88-0.46,2.4-0.76 c0.46-0.28,0.74-0.44,1.41-0.44c0.68,0,0.96,0.16,1.41,0.44c0.55,0.33,1.32,0.79,2.68,0.79s2.13-0.46,2.69-0.79 c0.46-0.28,0.73-0.44,1.41-0.44c0.68,0,0.96,0.17,1.41,0.44c0.55,0.33,1.32,0.79,2.68,0.79s2.11-0.46,2.68-0.79 c0.46-0.28,0.72-0.44,1.41-0.44c0.68,0,0.96,0.17,1.41,0.44c0.51,0.31,1.22,0.7,2.39,0.76v-2.45 C23.52,19.75,23.26,19.6,22.88,19.37z"></path> </g> </svg> 