<?xml version="1.0" encoding="UTF-8"?> <!-- Generator: Adobe Illustrator 16.0.0, SVG Export Plug-In . SVG Version: 6.00 Build 0) --> <svg xmlns="http://www.w3.org/2000/svg" xmlns:xlink="http://www.w3.org/1999/xlink" id="Layer_1" x="0px" y="0px" width="24px" height="24px" viewBox="0 0 24 24" xml:space="preserve"> <g> <path d="M1,7.74l2,2c4.97-4.97,13.03-4.97,18,0l2-2C16.93,1.67,7.08,1.67,1,7.74z"></path> <path d="M17,13.74l2-2c-3.86-3.86-10.13-3.86-14,0l2,2C9.76,10.98,14.24,10.98,17,13.74z"></path> <polygon points="3.71,20.81 5.12,20.81 5.12,18.68 7.02,18.68 7.02,17.51 5.12,17.51 5.12,16.5 7.15,16.5 7.15,15.32 3.71,15.32 "></polygon> <path d="M11.75,19.69c-0.04-0.17-0.09-0.34-0.13-0.5c-0.13-0.48-0.32-0.79-0.6-0.97c0.43-0.22,0.83-0.69,0.83-1.32 c0-0.51-0.18-0.91-0.53-1.19c-0.38-0.3-0.93-0.44-1.78-0.44c-0.59,0-1.18,0.04-1.61,0.11L7.85,15.4v5.41h1.39v-2.08H9.5 c0.41,0.01,0.62,0.12,0.76,0.77c0.17,0.71,0.29,1.11,0.38,1.26l0.03,0.05h1.45l-0.07-0.14C11.97,20.53,11.87,20.12,11.75,19.69z M9.61,17.67H9.24v-1.28c0.13-0.02,0.27-0.03,0.44-0.03c0.52,0.01,0.78,0.22,0.78,0.64C10.46,17.42,10.14,17.67,9.61,17.67z"></path> <polygon points="13.92,18.57 15.87,18.57 15.87,17.4 13.92,17.4 13.92,16.5 15.98,16.5 15.98,15.32 12.51,15.32 12.51,20.81 16.09,20.81 16.09,19.63 13.92,19.63 "></polygon> <polygon points="18.11,18.57 20.06,18.57 20.06,17.4 18.11,17.4 18.11,16.5 20.18,16.5 20.18,15.32 16.71,15.32 16.71,20.81 20.29,20.81 20.29,19.63 18.11,19.63 "></polygon> </g> </svg> 